<svg width="212" height="124" viewBox="0 0 212 124" fill="none" xmlns="http://www.w3.org/2000/svg">
<path d="M19.68 49.48C16.448 49.48 13.536 48.776 10.944 47.368C8.352 45.928 6.304 43.896 4.8 41.272C3.328 38.648 2.592 35.624 2.592 32.2C2.592 28.744 3.328 25.72 4.8 23.128C6.304 20.504 8.352 18.488 10.944 17.08C13.536 15.64 16.448 14.92 19.68 14.92C22.912 14.92 25.824 15.64 28.416 17.08C31.008 18.488 33.04 20.504 34.512 23.128C36.016 25.72 36.768 28.744 36.768 32.2C36.768 35.624 36.016 38.648 34.512 41.272C33.04 43.896 31.008 45.928 28.416 47.368C25.824 48.776 22.912 49.48 19.68 49.48ZM19.68 46.408C22.272 46.408 24.576 45.848 26.592 44.728C28.64 43.608 30.24 41.992 31.392 39.88C32.576 37.736 33.168 35.176 33.168 32.2C33.168 29.192 32.56 26.616 31.344 24.472C30.16 22.328 28.528 20.712 26.448 19.624C24.4 18.536 22.112 17.992 19.584 17.992C17.024 17.992 14.72 18.552 12.672 19.672C10.656 20.792 9.072 22.424 7.92 24.568C6.768 26.712 6.192 29.256 6.192 32.2C6.192 35.176 6.768 37.736 7.92 39.88C9.104 41.992 10.704 43.608 12.72 44.728C14.768 45.848 17.088 46.408 19.68 46.408ZM52.575 49.48C49.439 49.48 46.975 48.584 45.183 46.792C43.423 45 42.543 42.504 42.543 39.304V26.92C42.543 26.312 42.703 25.848 43.023 25.528C43.343 25.176 43.775 25 44.319 25C44.863 25 45.279 25.176 45.567 25.528C45.887 25.848 46.047 26.312 46.047 26.92V39.304C46.047 41.576 46.655 43.336 47.871 44.584C49.087 45.832 50.783 46.456 52.959 46.456C54.687 46.456 56.223 46.072 57.567 45.304C58.911 44.536 59.951 43.464 60.687 42.088C61.455 40.712 61.839 39.128 61.839 37.336V26.92C61.839 26.312 61.983 25.848 62.271 25.528C62.591 25.176 63.039 25 63.615 25C64.159 25 64.575 25.176 64.863 25.528C65.183 25.848 65.343 26.312 65.343 26.92V47.56C65.343 48.168 65.183 48.648 64.863 49C64.575 49.32 64.159 49.48 63.615 49.48C63.039 49.48 62.591 49.304 62.271 48.952C61.983 48.6 61.839 48.136 61.839 47.56V44.728C60.655 46.264 59.279 47.448 57.711 48.28C56.143 49.08 54.431 49.48 52.575 49.48ZM73.8548 49.48C73.3108 49.48 72.8788 49.32 72.5588 49C72.2708 48.648 72.1268 48.168 72.1268 47.56V26.92C72.1268 26.312 72.2708 25.848 72.5588 25.528C72.8468 25.176 73.2788 25 73.8548 25C74.3988 25 74.8148 25.176 75.1028 25.528C75.4228 25.848 75.5828 26.312 75.5828 26.92V29.8C77.7588 26.92 80.7668 25.48 84.6068 25.48H85.8068C86.4148 25.48 86.8948 25.624 87.2468 25.912C87.5988 26.168 87.7748 26.536 87.7748 27.016C87.7748 27.496 87.5988 27.864 87.2468 28.12C86.8948 28.376 86.4148 28.504 85.8068 28.504H84.4628C81.7428 28.504 79.5828 29.288 77.9828 30.856C76.4148 32.392 75.6308 34.488 75.6308 37.144V47.56C75.6308 48.136 75.4708 48.6 75.1508 48.952C74.8628 49.304 74.4308 49.48 73.8548 49.48ZM127.337 25.144C127.881 25.144 128.313 25.304 128.633 25.624C128.953 25.944 129.113 26.408 129.113 27.016V47.56C129.113 48.136 128.953 48.6 128.633 48.952C128.345 49.304 127.913 49.48 127.337 49.48C126.793 49.48 126.361 49.32 126.041 49C125.753 48.648 125.609 48.168 125.609 47.56V28.024H111.689V47.56C111.689 48.168 111.529 48.648 111.209 49C110.921 49.32 110.505 49.48 109.961 49.48C109.417 49.48 108.985 49.32 108.665 49C108.345 48.648 108.185 48.168 108.185 47.56V28.024H105.929C105.289 28.024 104.793 27.896 104.441 27.64C104.121 27.384 103.961 27.032 103.961 26.584C103.961 25.624 104.617 25.144 105.929 25.144H108.185V22.648C108.185 19.8 109.065 17.576 110.825 15.976C112.585 14.344 115.017 13.528 118.121 13.528C120.105 13.528 121.945 13.88 123.641 14.584C125.337 15.256 126.649 16.136 127.577 17.224C127.865 17.544 128.009 17.896 128.009 18.28C128.009 18.696 127.801 19.096 127.385 19.48C127.065 19.736 126.761 19.864 126.473 19.864C126.025 19.864 125.545 19.608 125.033 19.096C124.201 18.328 123.145 17.72 121.865 17.272C120.617 16.792 119.369 16.552 118.121 16.552C116.073 16.552 114.489 17.064 113.369 18.088C112.249 19.112 111.689 20.568 111.689 22.456V25.144H127.337ZM137.839 49.48C137.295 49.48 136.863 49.32 136.543 49C136.255 48.648 136.111 48.168 136.111 47.56V26.92C136.111 26.312 136.255 25.848 136.543 25.528C136.831 25.176 137.263 25 137.839 25C138.383 25 138.799 25.176 139.087 25.528C139.407 25.848 139.567 26.312 139.567 26.92V29.8C141.743 26.92 144.751 25.48 148.591 25.48H149.791C150.399 25.48 150.879 25.624 151.231 25.912C151.583 26.168 151.759 26.536 151.759 27.016C151.759 27.496 151.583 27.864 151.231 28.12C150.879 28.376 150.399 28.504 149.791 28.504H148.447C145.727 28.504 143.567 29.288 141.967 30.856C140.399 32.392 139.615 34.488 139.615 37.144V47.56C139.615 48.136 139.455 48.6 139.135 48.952C138.847 49.304 138.415 49.48 137.839 49.48ZM165.787 49.48C163.547 49.48 161.435 49.064 159.451 48.232C157.467 47.368 155.899 46.184 154.747 44.68C154.523 44.36 154.411 44.04 154.411 43.72C154.411 43.4 154.491 43.128 154.651 42.904C154.843 42.648 155.083 42.456 155.371 42.328C155.627 42.232 155.835 42.184 155.995 42.184C156.283 42.184 156.523 42.264 156.715 42.424C156.939 42.552 157.195 42.776 157.483 43.096C159.563 45.304 162.331 46.408 165.787 46.408C167.451 46.408 168.795 46.12 169.819 45.544C170.843 44.968 171.355 44.168 171.355 43.144C171.355 42.408 171.147 41.816 170.731 41.368C170.347 40.888 169.675 40.456 168.715 40.072C167.787 39.656 166.251 39.08 164.107 38.344C162.027 37.64 160.395 36.968 159.211 36.328C158.027 35.688 157.147 34.968 156.571 34.168C155.995 33.336 155.707 32.328 155.707 31.144C155.707 29.288 156.507 27.8 158.107 26.68C159.739 25.56 161.899 25 164.587 25C166.571 25 168.411 25.352 170.107 26.056C171.803 26.728 173.083 27.64 173.947 28.792C174.203 29.144 174.331 29.48 174.331 29.8C174.331 30.28 174.075 30.664 173.563 30.952C173.243 31.144 172.923 31.24 172.603 31.24C172.059 31.24 171.547 31 171.067 30.52C170.235 29.688 169.323 29.08 168.331 28.696C167.339 28.28 166.075 28.072 164.539 28.072C162.843 28.072 161.547 28.344 160.651 28.888C159.755 29.432 159.307 30.2 159.307 31.192C159.307 31.928 159.483 32.52 159.835 32.968C160.219 33.384 160.811 33.768 161.611 34.12C162.443 34.44 163.883 34.936 165.931 35.608C168.235 36.376 170.011 37.112 171.259 37.816C172.539 38.488 173.451 39.24 173.995 40.072C174.571 40.904 174.859 41.928 174.859 43.144C174.859 45.064 174.011 46.6 172.315 47.752C170.651 48.904 168.475 49.48 165.787 49.48ZM196.392 44.248C196.744 44.536 196.92 44.872 196.92 45.256C196.92 45.576 196.776 45.96 196.488 46.408C195.816 47.336 194.888 48.088 193.704 48.664C192.52 49.208 191.304 49.48 190.056 49.48C187.944 49.48 186.28 48.856 185.064 47.608C183.848 46.36 183.24 44.648 183.24 42.472V28.408H180.648C179.368 28.408 178.728 27.912 178.728 26.92C178.728 26.472 178.888 26.12 179.208 25.864C179.56 25.608 180.04 25.48 180.648 25.48H183.24V17.272C183.24 16.664 183.384 16.2 183.672 15.88C183.992 15.528 184.44 15.352 185.016 15.352C185.56 15.352 185.976 15.528 186.264 15.88C186.584 16.2 186.744 16.664 186.744 17.272V25.48H193.272C193.848 25.48 194.296 25.608 194.616 25.864C194.968 26.088 195.144 26.44 195.144 26.92C195.144 27.912 194.52 28.408 193.272 28.408H186.744V42.76C186.744 45.224 187.896 46.456 190.2 46.456C190.936 46.456 191.608 46.312 192.216 46.024C192.824 45.736 193.432 45.272 194.04 44.632C194.52 44.12 194.984 43.864 195.432 43.864C195.72 43.864 196.04 43.992 196.392 44.248ZM19.392 106.248C19.744 106.536 19.92 106.872 19.92 107.256C19.92 107.576 19.776 107.96 19.488 108.408C18.816 109.336 17.888 110.088 16.704 110.664C15.52 111.208 14.304 111.48 13.056 111.48C10.944 111.48 9.28 110.856 8.064 109.608C6.848 108.36 6.24 106.648 6.24 104.472V90.408H3.648C2.368 90.408 1.728 89.912 1.728 88.92C1.728 88.472 1.888 88.12 2.208 87.864C2.56 87.608 3.04 87.48 3.648 87.48H6.24V79.272C6.24 78.664 6.384 78.2 6.672 77.88C6.992 77.528 7.44 77.352 8.016 77.352C8.56 77.352 8.976 77.528 9.264 77.88C9.584 78.2 9.744 78.664 9.744 79.272V87.48H16.272C16.848 87.48 17.296 87.608 17.616 87.864C17.968 88.088 18.144 88.44 18.144 88.92C18.144 89.912 17.52 90.408 16.272 90.408H9.744V104.76C9.744 107.224 10.896 108.456 13.2 108.456C13.936 108.456 14.608 108.312 15.216 108.024C15.824 107.736 16.432 107.272 17.04 106.632C17.52 106.12 17.984 105.864 18.432 105.864C18.72 105.864 19.04 105.992 19.392 106.248ZM26.8391 111.48C26.2951 111.48 25.8631 111.32 25.5431 111C25.2551 110.648 25.1111 110.168 25.1111 109.56V88.92C25.1111 88.312 25.2551 87.848 25.5431 87.528C25.8311 87.176 26.2631 87 26.8391 87C27.3831 87 27.7991 87.176 28.0871 87.528C28.4071 87.848 28.5671 88.312 28.5671 88.92V91.8C30.7431 88.92 33.7511 87.48 37.5911 87.48H38.7911C39.3991 87.48 39.8791 87.624 40.2311 87.912C40.5831 88.168 40.7591 88.536 40.7591 89.016C40.7591 89.496 40.5831 89.864 40.2311 90.12C39.8791 90.376 39.3991 90.504 38.7911 90.504H37.4471C34.7271 90.504 32.5671 91.288 30.9671 92.856C29.3991 94.392 28.6151 96.488 28.6151 99.144V109.56C28.6151 110.136 28.4551 110.6 28.1351 110.952C27.8471 111.304 27.4151 111.48 26.8391 111.48ZM52.4096 111.48C49.2736 111.48 46.8096 110.792 45.0176 109.416C43.2576 108.04 42.3776 106.136 42.3776 103.704C42.3776 101.304 43.3056 99.4 45.1616 97.992C47.0496 96.584 49.6096 95.88 52.8416 95.88C54.7296 95.88 56.3936 96.136 57.8336 96.648C59.3056 97.16 60.4416 97.848 61.2416 98.712V95.64C61.2416 93.816 60.6336 92.424 59.4176 91.464C58.2336 90.504 56.4896 90.024 54.1856 90.024C51.2096 90.024 48.6336 90.728 46.4576 92.136C45.9136 92.456 45.4656 92.616 45.1136 92.616C44.7936 92.616 44.4736 92.488 44.1536 92.232C43.8016 91.944 43.6256 91.576 43.6256 91.128C43.6256 90.648 43.8336 90.248 44.2496 89.928C45.4016 89.032 46.8576 88.328 48.6176 87.816C50.4096 87.272 52.2336 87 54.0896 87C57.4816 87 60.1056 87.768 61.9616 89.304C63.8496 90.84 64.7936 93 64.7936 95.784V109.608C64.7936 110.856 64.2176 111.48 63.0656 111.48C62.5536 111.48 62.1376 111.32 61.8176 111C61.4976 110.648 61.3376 110.2 61.3376 109.656V107.928C59.3536 110.296 56.3776 111.48 52.4096 111.48ZM52.8416 108.552C55.3376 108.552 57.3696 108.088 58.9376 107.16C60.5056 106.2 61.2896 104.968 61.2896 103.464C61.2896 101.96 60.5536 100.808 59.0816 100.008C57.6416 99.176 55.5936 98.76 52.9376 98.76C50.6976 98.76 48.9696 99.192 47.7536 100.056C46.5376 100.888 45.9296 102.104 45.9296 103.704C45.9296 105.272 46.5216 106.472 47.7056 107.304C48.8896 108.136 50.6016 108.552 52.8416 108.552ZM81.4391 111.48C79.9031 111.48 78.5911 111.016 77.5031 110.088C76.4471 109.16 75.5671 107.72 74.8631 105.768L68.9111 89.304C68.8471 89.048 68.8151 88.872 68.8151 88.776C68.8151 88.424 68.9271 88.104 69.1511 87.816C69.3751 87.496 69.6631 87.272 70.0151 87.144C70.1751 87.08 70.4151 87.048 70.7351 87.048C71.1191 87.048 71.4391 87.144 71.6951 87.336C71.9831 87.528 72.1911 87.8 72.3191 88.152L78.3671 104.808C78.8791 106.184 79.3591 107.144 79.8071 107.688C80.2551 108.232 80.7991 108.504 81.4391 108.504C82.0791 108.504 82.6231 108.248 83.0711 107.736C83.5511 107.192 84.0311 106.248 84.5111 104.904L90.5591 88.152C90.8471 87.416 91.3751 87.048 92.1431 87.048C92.7191 87.048 93.1831 87.224 93.5351 87.576C93.9191 87.896 94.1111 88.296 94.1111 88.776C94.1111 88.872 94.0791 89.048 94.0151 89.304L87.9671 105.864C87.2631 107.816 86.3831 109.24 85.3271 110.136C84.2711 111.032 82.9751 111.48 81.4391 111.48ZM109.151 111.48C104.991 111.48 101.775 110.408 99.5033 108.264C97.2313 106.12 96.0953 103.08 96.0953 99.144C96.0953 95.368 97.2473 92.408 99.5513 90.264C101.855 88.088 105.007 87 109.007 87C111.471 87 113.663 87.4 115.583 88.2C117.503 88.968 118.991 90.072 120.047 91.512C121.135 92.92 121.679 94.536 121.679 96.36C121.679 97.704 121.295 98.744 120.527 99.48C119.791 100.216 118.767 100.584 117.455 100.584H99.6953C99.6953 103.048 100.527 104.984 102.191 106.392C103.855 107.768 106.175 108.456 109.151 108.456C110.975 108.456 112.543 108.264 113.855 107.88C115.167 107.464 116.399 106.808 117.551 105.912C118.159 105.4 118.655 105.144 119.039 105.144C119.327 105.144 119.599 105.272 119.855 105.528C120.303 105.912 120.527 106.312 120.527 106.728C120.527 107.048 120.335 107.4 119.951 107.784C118.639 109.032 117.103 109.96 115.343 110.568C113.583 111.176 111.519 111.48 109.151 111.48ZM116.399 97.752C116.975 97.752 117.407 97.64 117.695 97.416C117.983 97.16 118.127 96.712 118.127 96.072C118.127 94.92 117.743 93.88 116.975 92.952C116.207 92.024 115.119 91.304 113.711 90.792C112.335 90.28 110.767 90.024 109.007 90.024C106.159 90.024 103.903 90.728 102.239 92.136C100.607 93.512 99.7913 95.384 99.7913 97.752H116.399ZM129.846 111.48C129.302 111.48 128.87 111.32 128.55 111C128.262 110.648 128.118 110.168 128.118 109.56V76.488C128.118 75.88 128.262 75.416 128.55 75.096C128.87 74.744 129.302 74.568 129.846 74.568C130.39 74.568 130.822 74.744 131.142 75.096C131.462 75.416 131.622 75.88 131.622 76.488V109.56C131.622 110.136 131.462 110.6 131.142 110.952C130.854 111.304 130.422 111.48 129.846 111.48Z" fill="#0E6E74"/>
<path d="M188.581 85.9865L195.947 78.7826C197.916 76.816 199 74.1994 199 71.4162C199 68.633 197.916 66.0185 195.947 64.0499C193.98 62.0833 191.363 61 188.581 61C185.799 61 183.182 62.0833 181.213 64.0499C177.15 68.1122 177.15 74.7203 181.221 78.7888L188.581 85.9844V85.9865ZM182.686 65.5248C184.261 63.952 186.354 63.0853 188.581 63.0853C190.809 63.0853 192.901 63.952 194.474 65.5248C196.049 67.0977 196.916 69.1913 196.916 71.4183C196.916 73.6453 196.049 75.7369 194.482 77.3035L188.581 83.0741L182.686 77.3118C179.435 74.062 179.435 68.7726 182.686 65.5248ZM166.181 98.5005H164.076L160.471 94.0007C159.883 92.9216 158.754 92.2508 157.524 92.2508H153.709L156.176 98.5005H155.443L153.544 97.1985C152.361 96.0152 150.192 96.2964 149.352 97.7443C148.868 98.5755 148.866 99.5713 149.45 100.561L152.984 104.75H156.147L153.715 111H157.558C158.787 111 159.917 110.329 160.408 109.398L164.078 104.75H169.825V101.625C169.825 99.7859 168.325 98.5005 166.178 98.5005H166.181ZM167.743 102.667H163.072L158.679 108.254C158.456 108.663 158.029 108.917 157.562 108.917H156.766L159.198 102.667H153.955L151.156 99.3713C151.006 99.1088 151.109 98.8776 151.156 98.7901C151.234 98.6568 151.471 98.1172 152.215 98.7901L154.795 100.584H159.239L156.772 94.334H157.524C157.991 94.334 158.418 94.5882 158.741 95.1486L163.074 100.584H166.181C166.937 100.584 167.743 100.857 167.743 101.625V102.667ZM199 97.4589C199 101.48 195.728 104.75 191.707 104.75H173.995V102.667H191.707C194.578 102.667 196.916 100.33 196.916 97.4589C196.916 94.5882 194.578 92.2508 191.707 92.2508H166.701C162.68 92.2508 159.408 88.9801 159.408 84.9594C159.408 80.9388 162.68 77.6681 166.701 77.6681H175.414C175.753 78.3868 176.156 79.0847 176.618 79.7513H166.701C163.83 79.7513 161.492 82.0887 161.492 84.9594C161.492 87.8301 163.83 90.1675 166.701 90.1675H191.707C195.728 90.1675 199 93.4382 199 97.4589Z" fill="#68D8DF"/>
<path d="M188.583 73.0577C189.734 73.0577 190.667 72.125 190.667 70.9745C190.667 69.8239 189.734 68.8912 188.583 68.8912C187.432 68.8912 186.499 69.8239 186.499 70.9745C186.499 72.125 187.432 73.0577 188.583 73.0577Z" fill="#68D8DF"/>
</svg>
